# xmcd
#
# Track frame offsets: 
#        182
#        10725
#        22182
#        33607
#        47857
#        58912
#        68320
#        81340
#        93772
#        107182
#        118720
#        127582
#        137957
#        155397
#        170792
#        185407
#        198097
#        213560
#        229455
#        244000
#        254937
#        270957
#        284457
#        296182
#
# Disc length: 4139 seconds
#
# Revision: 0
# Processed by: cddbd v1.4PL0 Copyright (c) Steve Scherf et al.
# Submitted via: ExactAudioCopy v0.90b3
#
DISCID=6a102918
DTITLE=Charley Pride - Reader's Digest (Charley Pride's Country) - Dis
DTITLE=c 3
DYEAR=1900
DGENRE=Country
TTITLE0=The Happiness Of Having You
TTITLE1=A Sunshiny Day
TTITLE2=Hello, Darlin'
TTITLE3=Love Put A Song In My Heart
TTITLE4=Someday You Will
TTITLE5=Sweet Promises
TTITLE6=Touch My Heart
TTITLE7=Too Weak To Let You Go
TTITLE8=A Good Hearted Woman
TTITLE9=Fools
TTITLE10=One Mile More
TTITLE11=Before The Next Teardrop Falls
TTITLE12=Did You Think To Pray
TTITLE13=Let Me Live
TTITLE14=Whispering Hope
TTITLE15=The Church In The Wildwood
TTITLE16=Brush Arbor Meeting
TTITLE17=Little Delta Church
TTITLE18=Kaw-Liga
TTITLE19=Mississippi Cotton-Pickin' Delta Town
TTITLE20=Me And Bobby McGee
TTITLE21=All His Children
TTITLE22=Wonder Could I Live There Anymore
TTITLE23=Blue Ridge Mountains Turnin' Green
EXTD=
EXTT0=
EXTT1=
EXTT2=
EXTT3=
EXTT4=
EXTT5=
EXTT6=
EXTT7=
EXTT8=
EXTT9=
EXTT10=
EXTT11=
EXTT12=
EXTT13=
EXTT14=
EXTT15=
EXTT16=
EXTT17=
EXTT18=
EXTT19=
EXTT20=
EXTT21=
EXTT22=
EXTT23=
PLAYORDER=
